# xmcd CD database file
#
# Track frame offsets:
#	150
#	10294
#	50631
#	79442
#	95986
#	124918
#	129766
#	172787
#	182334
#	212960
#	232463
#
# Disc length: 3213 seconds
#
# Revision: 0
# Processed by: cddbd v1.5.2PL0 Copyright (c) Steve Scherf et al.
# Submitted via: CDex 1.51
#
DISCID=9b0c8b0b
DTITLE=Jef Neve Trio - Nothing is illegal
DYEAR=2006
DGENRE=Jazz
TTITLE0=Jef Neve Trio - Airplane
TTITLE1=Jef Neve Trio - Nothing But A Cassablanca Turtle Slideshow Dinner
TTITLE2=Jef Neve Trio - Abschied
TTITLE3=Jef Neve Trio - Astra
TTITLE4=Jef Neve Trio - Nobody Is Illegal
TTITLE5=Jef Neve Trio - Unprepared
TTITLE6=Jef Neve Trio - Second Love
TTITLE7=Jef Neve Trio - Goldfish
TTITLE8=Jef Neve Trio - Together At Last
TTITLE9=Jef Neve Trio - Until Now
TTITLE10=Jef Neve Trio - Delayed
EXTD=YEAR: 2006
EXTT0=
EXTT1=
EXTT2=
EXTT3=
EXTT4=
EXTT5=
EXTT6=
EXTT7=
EXTT8=
EXTT9=
EXTT10=
PLAYORDER=
